<svg data-v-d3f97b9e="" xmlns="http://www.w3.org/2000/svg" viewBox="0 0 212 91"><!----><!----><!----><g data-v-d3f97b9e="" id="e2b896fa-6ee6-4a2c-aa7f-7b4c4dd851a3" fill="#371213" transform="matrix(4.379561799902154,0,0,4.379561799902154,105.83917309300546,1.5547438977376302)"><path d="M0.73 5.77C0.73 9.07 5.71 8.20 5.71 10.65C5.71 11.59 4.87 12.31 3.89 12.31C3.07 12.31 1.47 11.83 1.44 11.47L1.36 10.15C1.34 9.97 1.27 9.91 1.09 9.91L1.02 9.91C0.81 9.91 0.81 10.00 0.81 10.12C0.81 10.32 0.92 11.66 0.95 12.17C0.97 12.38 2.23 12.85 3.77 12.85C5.33 12.85 6.94 11.87 6.94 10.11C6.94 6.79 1.97 7.87 1.97 5.32C1.97 4.31 2.76 3.56 3.79 3.56C4.82 3.56 5.91 4.58 5.91 4.89C5.91 5.01 5.87 5.73 5.87 5.78C5.87 5.92 5.91 5.99 6.17 5.99C6.41 5.99 6.43 5.94 6.43 5.75C6.43 5.04 6.51 3.68 6.51 3.53C6.51 3.30 6.47 3.29 6.20 3.29C5.98 3.29 5.96 3.32 5.95 3.53C5.95 3.61 5.94 3.78 5.89 3.78C5.84 3.78 5.75 3.74 5.68 3.68C4.89 3.14 4.27 3.08 3.77 3.08C2.24 3.08 0.73 4.17 0.73 5.77ZM7.84 11.61C7.84 12.35 8.37 12.84 9.25 12.84C9.87 12.84 10.58 12.45 10.99 12.19C11.09 12.14 11.10 12.11 11.14 12.24C11.23 12.46 11.28 12.88 11.73 12.88C11.83 12.88 12.07 12.74 12.32 12.56C12.66 12.31 13.03 12.04 13.03 12.01C13.03 11.93 12.88 11.73 12.81 11.73C12.78 11.73 12.36 12.08 12.25 12.08C12.21 12.08 12.00 12.01 12.00 11.70C12.00 11.40 12.08 9.56 12.08 8.85C12.08 7.73 11.65 6.97 10.21 6.97C9.28 6.97 8.04 7.67 8.04 8.85C8.04 9.00 8.09 9.11 8.16 9.11C8.23 9.11 8.74 8.86 8.97 8.69C9.06 8.64 9.07 8.50 9.07 8.41C9.07 7.84 9.10 7.63 9.48 7.48C9.60 7.42 9.77 7.39 9.91 7.39C11.07 7.39 11.09 8.32 11.09 9.31C11.09 9.44 11.09 9.48 11.02 9.49C9.63 9.73 7.84 10.32 7.84 11.61ZM8.90 11.21C8.90 10.58 9.53 10.22 10.19 10.01C10.58 9.88 11.00 9.80 11.05 9.80C11.07 9.80 11.09 9.81 11.09 9.91L11.09 11.75C11.09 11.84 10.30 12.14 9.77 12.14C9.21 12.14 8.90 11.65 8.90 11.21ZM13.29 7.45C13.29 7.59 13.29 7.67 13.47 7.67L13.75 7.67C13.85 7.67 13.85 7.69 13.92 7.85C14.49 9.25 16.10 12.99 16.10 13.20C16.10 13.34 15.72 14.29 15.48 14.88C15.33 15.26 14.63 15.43 14.25 15.57C14.13 15.61 13.94 15.69 13.85 15.83C13.71 16.03 13.57 16.30 13.57 16.45C13.57 16.59 13.64 16.77 13.86 16.77C13.97 16.77 14.39 16.58 14.74 16.41C15.09 16.24 15.12 16.17 15.33 15.90C15.93 15.16 15.99 14.92 16.24 14.21C16.51 13.44 16.76 12.67 16.80 12.57C16.91 12.29 18.44 8.40 18.66 7.78C18.70 7.67 18.75 7.67 18.83 7.67L19.04 7.67C19.21 7.67 19.21 7.59 19.21 7.45C19.21 7.28 19.18 7.21 19.03 7.21C18.90 7.21 18.52 7.24 18.21 7.24C17.93 7.24 17.39 7.21 17.28 7.21C17.09 7.21 17.08 7.31 17.08 7.45C17.08 7.59 17.08 7.67 17.26 7.67L17.75 7.67C17.95 7.67 18.00 7.69 18.00 7.76C18.00 7.78 18.00 7.81 17.99 7.87C17.85 8.40 17.21 10.26 16.87 11.24C16.77 11.51 16.70 11.69 16.67 11.69C16.63 11.69 16.56 11.49 16.45 11.24C16.02 10.18 15.20 7.99 15.20 7.77C15.20 7.70 15.33 7.67 15.53 7.67L15.79 7.67C15.96 7.67 16.00 7.59 16.00 7.45C16.00 7.29 15.97 7.21 15.78 7.21C15.57 7.21 15.08 7.24 14.55 7.24C14.14 7.24 13.69 7.21 13.47 7.21C13.30 7.21 13.29 7.32 13.29 7.45ZM19.96 12.43C19.96 12.59 19.99 12.67 20.19 12.67C20.61 12.67 21 12.64 21.35 12.64C21.76 12.64 22.60 12.67 22.86 12.67C23.06 12.67 23.06 12.60 23.06 12.43C23.06 12.26 23.06 12.21 22.89 12.21L21.94 12.21C21.85 12.21 21.81 11.17 21.81 10.23L21.81 7.91C21.81 7.80 21.87 7.78 22.08 7.78L23.65 7.78C23.73 7.78 23.77 7.48 23.77 7.45C23.77 7.35 23.70 7.35 23.63 7.35L22.08 7.35C21.81 7.35 21.76 7.35 21.76 7.15C21.77 6.55 21.78 6.31 21.78 5.71C21.78 4.83 21.83 3.46 22.57 3.46C23.04 3.46 23.10 3.93 23.18 4.58C23.20 4.72 23.28 4.75 23.41 4.75C23.62 4.75 24.12 4.40 24.12 4.05C24.12 3.44 23.48 3.07 22.92 3.07C21.25 3.07 20.69 4.40 20.69 5.87C20.69 6.61 20.72 6.54 20.72 7.22C20.72 7.35 20.71 7.35 20.62 7.35L20.20 7.35C20.08 7.35 20.05 7.39 20.05 7.57C20.05 7.76 20.08 7.80 20.24 7.80L20.71 7.80C20.73 7.80 20.73 9.02 20.73 9.35L20.73 10.19C20.73 10.35 20.75 10.88 20.75 11.37C20.75 11.70 20.75 12.21 20.69 12.21L20.17 12.21C20.01 12.21 19.96 12.29 19.96 12.43Z"></path></g><linearGradient data-v-d3f97b9e="" gradientTransform="rotate(25)" id="08b3a76a-bb98-4bfc-b4bb-8eb6afc68d18" x1="0%" y1="0%" x2="100%" y2="0%"><stop data-v-d3f97b9e="" offset="0%" style="stop-color: rgb(233, 0, 127); stop-opacity: 1;"></stop><stop data-v-d3f97b9e="" offset="100%" style="stop-color: rgb(254, 161, 52); stop-opacity: 1;"></stop></linearGradient><g data-v-d3f97b9e="" id="dcfdf7d6-9ac2-4d1b-a99d-18129e6ce4e4" transform="matrix(1.008087013956002,0,0,1.008087013956002,-4.5617108334457015,-5.044478576758017)" stroke="none" fill="url(#08b3a76a-bb98-4bfc-b4bb-8eb6afc68d18)"><ellipse cx="49.55" cy="79.954" rx="44.161" ry="14.824"></ellipse><ellipse cx="50.266" cy="24.82" rx="20.791" ry="19.32"></ellipse><ellipse cx="50.054" cy="54.456" rx="31.517" ry="7.011"></ellipse></g><!----></svg>